<svg width="294" height="329" viewBox="0 0 294 329" fill="none" xmlns="http://www.w3.org/2000/svg" xmlns:xlink="http://www.w3.org/1999/xlink">
<g opacity="0.6" filter="url(#filter0_ddddd_2_954)">
<g filter="url(#filter1_di_2_954)">
<path d="M227.767 24.6111C226.662 24.6111 225.767 23.7157 225.767 22.6111V10C225.767 8.89543 224.871 8 223.767 8H22C19.7908 8 18 9.79086 18 12V28.4444H20.0444V66.7778H18V268.667L26.9444 270.711H239.311L248 268.667V66.7778H245.956V28.4444H248V26.6111C248 25.5065 247.105 24.6111 246 24.6111H227.767Z" fill="#AD78F2"/>
</g>
<g filter="url(#filter2_i_2_954)">
<path d="M18 116.867H25.2C26.3046 116.867 27.2 117.762 27.2 118.867V270.711L18 268.667V116.867Z" fill="#D7D8DB"/>
<path d="M18 116.867H25.2C26.3046 116.867 27.2 117.762 27.2 118.867V270.711L18 268.667V116.867Z" fill="#AD78F2"/>
</g>
<g filter="url(#filter3_i_2_954)">
<path d="M248 116.867H240.8C239.695 116.867 238.8 117.762 238.8 118.867V270.711L248 268.667V116.867Z" fill="#D7D8DB"/>
<path d="M248 116.867H240.8C239.695 116.867 238.8 117.762 238.8 118.867V270.711L248 268.667V116.867Z" fill="#AD78F2"/>
</g>
<g filter="url(#filter4_ii_2_954)">
<path d="M40.0059 46.3333C39.9876 46.7569 39.9782 47.1829 39.9782 47.6111C39.9782 48.5594 40.0239 49.4972 40.1132 50.4222H20.0449V46.3333H40.0059Z" fill="#D7D8DB"/>
<path d="M40.0059 46.3333C39.9876 46.7569 39.9782 47.1829 39.9782 47.6111C39.9782 48.5594 40.0239 49.4972 40.1132 50.4222H20.0449V46.3333H40.0059Z" fill="#AD78F2"/>
<path d="M20.0449 38.1555H41.5618C41.1039 39.4775 40.7393 40.8431 40.476 42.2444H20.0449V38.1555Z" fill="#D7D8DB"/>
<path d="M20.0449 38.1555H41.5618C41.1039 39.4775 40.7393 40.8431 40.476 42.2444H20.0449V38.1555Z" fill="#AD78F2"/>
<path d="M47.2554 28.4444C45.7409 30.1499 44.4253 32.0362 43.3451 34.0666H20.0449V28.4444H47.2554Z" fill="#D7D8DB"/>
<path d="M47.2554 28.4444C45.7409 30.1499 44.4253 32.0362 43.3451 34.0666H20.0449V28.4444H47.2554Z" fill="#AD78F2"/>
<path d="M20.0449 62.6888H44.2222C45.1134 64.1417 46.1294 65.5097 47.2554 66.7777H20.0449V62.6888Z" fill="#D7D8DB"/>
<path d="M20.0449 62.6888H44.2222C45.1134 64.1417 46.1294 65.5097 47.2554 66.7777H20.0449V62.6888Z" fill="#AD78F2"/>
<path d="M20.0449 58.6V54.5111H40.8078C41.1525 55.9172 41.6003 57.2831 42.1426 58.6H20.0449Z" fill="#D7D8DB"/>
<path d="M20.0449 58.6V54.5111H40.8078C41.1525 55.9172 41.6003 57.2831 42.1426 58.6H20.0449Z" fill="#AD78F2"/>
</g>
<g filter="url(#filter5_ii_2_954)">
<path d="M245.955 34.0667H223.677C222.597 32.0362 221.281 30.15 219.767 28.4445H245.955V34.0667Z" fill="#D7D8DB"/>
<path d="M245.955 34.0667H223.677C222.597 32.0362 221.281 30.15 219.767 28.4445H245.955V34.0667Z" fill="#AD78F2"/>
<path d="M245.955 42.2445H226.546C226.283 40.8431 225.918 39.4775 225.46 38.1556H245.955V42.2445Z" fill="#D7D8DB"/>
<path d="M245.955 42.2445H226.546C226.283 40.8431 225.918 39.4775 225.46 38.1556H245.955V42.2445Z" fill="#AD78F2"/>
<path d="M245.955 50.4222H226.909C226.998 49.4972 227.044 48.5595 227.044 47.6111C227.044 47.183 227.035 46.757 227.016 46.3333H245.955V50.4222Z" fill="#D7D8DB"/>
<path d="M245.955 50.4222H226.909C226.998 49.4972 227.044 48.5595 227.044 47.6111C227.044 47.183 227.035 46.757 227.016 46.3333H245.955V50.4222Z" fill="#AD78F2"/>
<path d="M245.955 58.6H224.88C225.422 57.2832 225.87 55.9173 226.214 54.5111H245.955V58.6Z" fill="#D7D8DB"/>
<path d="M245.955 58.6H224.88C225.422 57.2832 225.87 55.9173 226.214 54.5111H245.955V58.6Z" fill="#AD78F2"/>
<path d="M219.767 66.7778C220.893 65.5098 221.909 64.1418 222.8 62.6889H245.955V66.7778H219.767Z" fill="#D7D8DB"/>
<path d="M219.767 66.7778C220.893 65.5098 221.909 64.1418 222.8 62.6889H245.955V66.7778H219.767Z" fill="#AD78F2"/>
</g>
<g filter="url(#filter6_ii_2_954)">
<path d="M45.0879 47.8666C45.0879 34.5995 55.843 23.8444 69.1101 23.8444H196.888C210.155 23.8444 220.91 34.5995 220.91 47.8666C220.91 61.1338 210.155 71.8889 196.888 71.8889H69.1101C55.843 71.8889 45.0879 61.1338 45.0879 47.8666Z" fill="#AD78F2"/>
</g>
<g filter="url(#filter7_i_2_954)">
<rect x="45.0879" y="80.0667" width="175.822" height="160.489" rx="4" fill="#AD78F2"/>
</g>
<g filter="url(#filter8_i_2_954)">
<path d="M143.363 243.622C146.915 243.622 148.705 247.906 146.21 250.433L135.629 261.147C134.049 262.748 131.46 262.731 129.901 261.111L119.588 250.396C117.142 247.855 118.943 243.622 122.47 243.622H143.363Z" fill="#AD78F2"/>
</g>
<g filter="url(#filter9_di_2_954)">
<path d="M67.4082 51.1518H69.2944V47.4666H72.923V45.9115H69.2944V43.7857H73.315V42.2306H67.4082V51.1518Z" fill="#AD78F2"/>
<path d="M73.9969 51.1518H75.8526V44.4609H73.9969V51.1518ZM74.9291 43.5984C75.4823 43.5984 75.9353 43.1759 75.9353 42.6575C75.9353 42.1435 75.4823 41.7209 74.9291 41.7209C74.3802 41.7209 73.9272 42.1435 73.9272 42.6575C73.9272 43.1759 74.3802 43.5984 74.9291 43.5984Z" fill="#AD78F2"/>
<path d="M79.8015 53.7567C81.7138 53.7567 83.0729 52.8855 83.0729 51.2172V44.4609H81.2302V45.5848H81.1605C80.9123 45.0403 80.3677 44.3738 79.2482 44.3738C77.7802 44.3738 76.5388 45.5151 76.5388 47.7933C76.5388 50.0192 77.7454 51.056 79.2526 51.056C80.3198 51.056 80.9166 50.5202 81.1605 49.967H81.239V51.191C81.239 52.0666 80.6509 52.4238 79.845 52.4238C79.0261 52.4238 78.6123 52.0666 78.4598 51.705L76.7435 51.9359C76.9657 52.9465 77.998 53.7567 79.8015 53.7567ZM79.8407 49.662C78.9302 49.662 78.4337 48.9389 78.4337 47.7846C78.4337 46.6477 78.9215 45.8505 79.8407 45.8505C80.7424 45.8505 81.2477 46.6128 81.2477 47.7846C81.2477 48.9651 80.7337 49.662 79.8407 49.662Z" fill="#AD78F2"/>
<path d="M83.9976 51.1518H85.8532V47.1355C85.8532 46.395 86.3237 45.9028 86.9423 45.9028C87.5521 45.9028 87.9616 46.3209 87.9616 46.9787V51.1518H89.7606V47.0658C89.7606 46.3732 90.157 45.9028 90.8322 45.9028C91.4246 45.9028 91.869 46.273 91.869 47.0179V51.1518H93.7203V46.652C93.7203 45.2014 92.8578 44.3738 91.612 44.3738C90.6318 44.3738 89.8695 44.8747 89.5951 45.6414H89.5254C89.312 44.866 88.6281 44.3738 87.7089 44.3738C86.8072 44.3738 86.1233 44.853 85.8445 45.6414H85.7661V44.4609H83.9976V51.1518Z" fill="#AD78F2"/>
<path d="M97.6833 51.2825C99.3386 51.2825 100.454 50.4766 100.715 49.2352L98.9989 49.1219C98.8116 49.6316 98.3324 49.8973 97.7138 49.8973C96.786 49.8973 96.1979 49.2831 96.1979 48.2855V48.2812H100.754V47.7715C100.754 45.4977 99.3779 44.3738 97.6093 44.3738C95.6404 44.3738 94.364 45.7721 94.364 47.8369C94.364 49.9583 95.6229 51.2825 97.6833 51.2825ZM96.1979 47.1312C96.2371 46.3689 96.8165 45.759 97.6398 45.759C98.4457 45.759 99.0032 46.334 99.0076 47.1312H96.1979Z" fill="#AD78F2"/>
<path d="M103.269 47.2836C103.273 46.4211 103.787 45.9158 104.537 45.9158C105.282 45.9158 105.73 46.4037 105.726 47.2227V51.1518H107.582V46.8916C107.582 45.3321 106.667 44.3738 105.273 44.3738C104.28 44.3738 103.561 44.8617 103.26 45.6414H103.182V44.4609H101.413V51.1518H103.269V47.2836Z" fill="#AD78F2"/>
<path d="M110.958 51.2607C112.038 51.2607 112.6 50.6378 112.857 50.0802H112.935V51.1518H114.765V42.2306H112.913V45.5848H112.857C112.609 45.0403 112.073 44.3738 110.953 44.3738C109.485 44.3738 108.244 45.5151 108.244 47.8151C108.244 50.0541 109.433 51.2607 110.958 51.2607ZM111.546 49.784C110.635 49.784 110.139 48.9738 110.139 47.8064C110.139 46.6477 110.627 45.8505 111.546 45.8505C112.447 45.8505 112.953 46.6128 112.953 47.8064C112.953 48.9999 112.439 49.784 111.546 49.784Z" fill="#AD78F2"/>
<path d="M118.762 51.2825C120.792 51.2825 122.055 49.8929 122.055 47.8325C122.055 45.759 120.792 44.3738 118.762 44.3738C116.732 44.3738 115.468 45.759 115.468 47.8325C115.468 49.8929 116.732 51.2825 118.762 51.2825ZM118.77 49.845C117.834 49.845 117.355 48.9869 117.355 47.8194C117.355 46.652 117.834 45.7895 118.77 45.7895C119.689 45.7895 120.169 46.652 120.169 47.8194C120.169 48.9869 119.689 49.845 118.77 49.845Z" fill="#AD78F2"/>
</g>
<g filter="url(#filter10_di_2_954)">
<path d="M127.748 41.395H126.144L128.686 54.0333H130.266L137.005 41.395H135.4L129.896 52.0339H129.747L127.748 41.395Z" fill="#AD78F2"/>
<path d="M135.832 54.0333H143.559L143.781 52.6757H137.585L138.301 48.3806H144.003L144.225 47.023H138.523L139.239 42.7526H145.336L145.558 41.395H137.931L135.832 54.0333Z" fill="#AD78F2"/>
<path d="M156.777 45.3445C156.728 42.7526 154.877 41.2222 152.309 41.2222C149.1 41.2222 146.41 43.6659 145.743 47.6154C145.077 51.6636 147.052 54.2061 150.335 54.2061C152.828 54.2061 155.099 52.6757 156.012 50.0838H154.482C153.815 51.8364 152.112 52.7744 150.384 52.7744C148.138 52.7744 146.657 51.0465 147.2 47.8129C147.743 44.4805 149.89 42.6539 152.235 42.6539C153.865 42.6539 155.198 43.5919 155.272 45.3445H156.777Z" fill="#AD78F2"/>
<path d="M157.961 42.7526H161.935L160.059 54.0333H161.589L163.465 42.7526H167.44L167.662 41.395H158.183L157.961 42.7526Z" fill="#AD78F2"/>
<path d="M178.057 47.8129C178.724 43.7647 176.749 41.2222 173.491 41.2222C170.282 41.2222 167.591 43.6659 166.925 47.6154C166.258 51.6636 168.233 54.2061 171.516 54.2061C174.7 54.2061 177.391 51.7624 178.057 47.8129ZM176.601 47.6154C176.058 50.9478 173.91 52.7744 171.565 52.7744C169.319 52.7744 167.838 51.0465 168.381 47.8129C168.924 44.4805 171.072 42.6539 173.417 42.6539C175.663 42.6539 177.144 44.3818 176.601 47.6154Z" fill="#AD78F2"/>
<path d="M178.551 54.0333H180.082L180.902 49.0965H183.661C183.772 49.0965 183.877 49.0965 183.982 49.0903L185.833 54.0333H187.61L185.611 48.8126C187.32 48.2572 188.295 46.9366 188.573 45.2704C188.943 43.0241 187.882 41.395 184.92 41.395H180.649L178.551 54.0333ZM181.131 47.7142L181.958 42.7526H184.648C186.697 42.7526 187.314 43.74 187.067 45.2704C186.82 46.7761 185.882 47.7142 183.858 47.7142H181.131Z" fill="#AD78F2"/>
<path d="M197.091 44.6533H198.572C198.794 42.6539 197.313 41.2222 194.869 41.2222C192.45 41.2222 190.327 42.6292 189.957 44.752C189.686 46.4552 190.747 47.4673 192.623 48.035L194.104 48.4794C195.388 48.8496 196.498 49.3186 196.276 50.5775C196.054 51.9599 194.573 52.8732 192.821 52.8732C191.315 52.8732 190.081 52.2067 190.204 50.775H188.624C188.427 52.8485 189.883 54.2555 192.598 54.2555C195.511 54.2555 197.412 52.651 197.757 50.6022C198.152 48.2325 196.029 47.4673 194.795 47.1217L193.561 46.7761C192.672 46.5293 191.241 46.0356 191.463 44.678C191.66 43.4684 192.919 42.5798 194.598 42.5798C196.128 42.5798 197.091 43.2957 197.091 44.6533Z" fill="#AD78F2"/>
</g>
</g>
<g filter="url(#filter11_di_2_954)">
<path d="M227.767 24.6111C226.662 24.6111 225.767 23.7157 225.767 22.6111V10C225.767 8.89543 224.871 8 223.767 8H22C19.7908 8 18 9.79086 18 12V28.4444H20.0444V66.7778H18V268.667L26.9444 270.711H239.311L248 268.667V66.7778H245.956V28.4444H248V26.6111C248 25.5065 247.105 24.6111 246 24.6111H227.767Z" fill="#AD78F2"/>
</g>
<g filter="url(#filter12_i_2_954)">
<path d="M18 116.867H25.2C26.3046 116.867 27.2 117.762 27.2 118.867V270.711L18 268.667V116.867Z" fill="#D7D8DB"/>
<path d="M18 116.867H25.2C26.3046 116.867 27.2 117.762 27.2 118.867V270.711L18 268.667V116.867Z" fill="#AD78F2"/>
</g>
<g filter="url(#filter13_i_2_954)">
<path d="M248 116.867H240.8C239.695 116.867 238.8 117.762 238.8 118.867V270.711L248 268.667V116.867Z" fill="#D7D8DB"/>
<path d="M248 116.867H240.8C239.695 116.867 238.8 117.762 238.8 118.867V270.711L248 268.667V116.867Z" fill="#AD78F2"/>
</g>
<g filter="url(#filter14_ii_2_954)">
<path d="M40.0059 46.3333C39.9876 46.7569 39.9782 47.1829 39.9782 47.6111C39.9782 48.5594 40.0239 49.4972 40.1132 50.4222H20.0449V46.3333H40.0059Z" fill="#D7D8DB"/>
<path d="M40.0059 46.3333C39.9876 46.7569 39.9782 47.1829 39.9782 47.6111C39.9782 48.5594 40.0239 49.4972 40.1132 50.4222H20.0449V46.3333H40.0059Z" fill="#AD78F2"/>
<path d="M20.0449 38.1555H41.5618C41.1039 39.4775 40.7393 40.8431 40.476 42.2444H20.0449V38.1555Z" fill="#D7D8DB"/>
<path d="M20.0449 38.1555H41.5618C41.1039 39.4775 40.7393 40.8431 40.476 42.2444H20.0449V38.1555Z" fill="#AD78F2"/>
<path d="M47.2554 28.4444C45.7409 30.1499 44.4253 32.0362 43.3451 34.0666H20.0449V28.4444H47.2554Z" fill="#D7D8DB"/>
<path d="M47.2554 28.4444C45.7409 30.1499 44.4253 32.0362 43.3451 34.0666H20.0449V28.4444H47.2554Z" fill="#AD78F2"/>
<path d="M20.0449 62.6888H44.2222C45.1134 64.1417 46.1294 65.5097 47.2554 66.7777H20.0449V62.6888Z" fill="#D7D8DB"/>
<path d="M20.0449 62.6888H44.2222C45.1134 64.1417 46.1294 65.5097 47.2554 66.7777H20.0449V62.6888Z" fill="#AD78F2"/>
<path d="M20.0449 58.6V54.5111H40.8078C41.1525 55.9172 41.6003 57.2831 42.1426 58.6H20.0449Z" fill="#D7D8DB"/>
<path d="M20.0449 58.6V54.5111H40.8078C41.1525 55.9172 41.6003 57.2831 42.1426 58.6H20.0449Z" fill="#AD78F2"/>
</g>
<g filter="url(#filter15_ii_2_954)">
<path d="M245.955 34.0667H223.677C222.597 32.0362 221.281 30.15 219.767 28.4445H245.955V34.0667Z" fill="#D7D8DB"/>
<path d="M245.955 34.0667H223.677C222.597 32.0362 221.281 30.15 219.767 28.4445H245.955V34.0667Z" fill="#AD78F2"/>
<path d="M245.955 42.2445H226.546C226.283 40.8431 225.918 39.4775 225.46 38.1556H245.955V42.2445Z" fill="#D7D8DB"/>
<path d="M245.955 42.2445H226.546C226.283 40.8431 225.918 39.4775 225.46 38.1556H245.955V42.2445Z" fill="#AD78F2"/>
<path d="M245.955 50.4222H226.909C226.998 49.4972 227.044 48.5595 227.044 47.6111C227.044 47.183 227.035 46.757 227.016 46.3333H245.955V50.4222Z" fill="#D7D8DB"/>
<path d="M245.955 50.4222H226.909C226.998 49.4972 227.044 48.5595 227.044 47.6111C227.044 47.183 227.035 46.757 227.016 46.3333H245.955V50.4222Z" fill="#AD78F2"/>
<path d="M245.955 58.6H224.88C225.422 57.2832 225.87 55.9173 226.214 54.5111H245.955V58.6Z" fill="#D7D8DB"/>
<path d="M245.955 58.6H224.88C225.422 57.2832 225.87 55.9173 226.214 54.5111H245.955V58.6Z" fill="#AD78F2"/>
<path d="M219.767 66.7778C220.893 65.5098 221.909 64.1418 222.8 62.6889H245.955V66.7778H219.767Z" fill="#D7D8DB"/>
<path d="M219.767 66.7778C220.893 65.5098 221.909 64.1418 222.8 62.6889H245.955V66.7778H219.767Z" fill="#AD78F2"/>
</g>
<g filter="url(#filter16_ii_2_954)">
<path d="M45.0879 47.8666C45.0879 34.5995 55.843 23.8444 69.1101 23.8444H196.888C210.155 23.8444 220.91 34.5995 220.91 47.8666C220.91 61.1338 210.155 71.8889 196.888 71.8889H69.1101C55.843 71.8889 45.0879 61.1338 45.0879 47.8666Z" fill="#AD78F2"/>
</g>
<g style="mix-blend-mode:hard-light" filter="url(#filter17_i_2_954)">
<rect x="45.6008" y="80.45" width="175.822" height="160.489" rx="4" fill="#AD78F2"/>
</g>
<rect x="45.6008" y="80.45" width="175.95" height="161" rx="4" fill="url(#pattern0)"/>
<g filter="url(#filter18_i_2_954)">
<path d="M143.363 243.622C146.915 243.622 148.705 247.906 146.21 250.433L135.629 261.147C134.049 262.748 131.46 262.731 129.901 261.111L119.588 250.396C117.142 247.855 118.943 243.622 122.47 243.622H143.363Z" fill="#AD78F2"/>
</g>
<defs>
<filter id="filter0_ddddd_2_954" x="-1.52588e-05" y="0" width="294" height="328.711" filterUnits="userSpaceOnUse" color-interpolation-filters="sRGB">
<feFlood flood-opacity="0" result="BackgroundImageFix"/>
<feColorMatrix in="SourceAlpha" type="matrix" values="0 0 0 0 0 0 0 0 0 0 0 0 0 0 0 0 0 0 127 0" result="hardAlpha"/>
<feMorphology radius="1" operator="dilate" in="SourceAlpha" result="effect1_dropShadow_2_954"/>
<feOffset dy="7"/>
<feGaussianBlur stdDeviation="7"/>
<feColorMatrix type="matrix" values="0 0 0 0 0 0 0 0 0 0 0 0 0 0 0 0 0 0 0.51 0"/>
<feBlend mode="normal" in2="BackgroundImageFix" result="effect1_dropShadow_2_954"/>
<feColorMatrix in="SourceAlpha" type="matrix" values="0 0 0 0 0 0 0 0 0 0 0 0 0 0 0 0 0 0 127 0" result="hardAlpha"/>
<feMorphology radius="4" operator="erode" in="SourceAlpha" result="effect2_dropShadow_2_954"/>
<feOffset dy="6"/>
<feGaussianBlur stdDeviation="2"/>
<feColorMatrix type="matrix" values="0 0 0 0 0 0 0 0 0 0 0 0 0 0 0 0 0 0 0.62 0"/>
<feBlend mode="normal" in2="effect1_dropShadow_2_954" result="effect2_dropShadow_2_954"/>
<feColorMatrix in="SourceAlpha" type="matrix" values="0 0 0 0 0 0 0 0 0 0 0 0 0 0 0 0 0 0 127 0" result="hardAlpha"/>
<feMorphology radius="16" operator="erode" in="SourceAlpha" result="effect3_dropShadow_2_954"/>
<feOffset dy="40"/>
<feGaussianBlur stdDeviation="17"/>
<feColorMatrix type="matrix" values="0 0 0 0 0 0 0 0 0 0 0 0 0 0 0 0 0 0 0.44 0"/>
<feBlend mode="normal" in2="effect2_dropShadow_2_954" result="effect3_dropShadow_2_954"/>
<feColorMatrix in="SourceAlpha" type="matrix" values="0 0 0 0 0 0 0 0 0 0 0 0 0 0 0 0 0 0 127 0" result="hardAlpha"/>
<feMorphology radius="16" operator="erode" in="SourceAlpha" result="effect4_dropShadow_2_954"/>
<feOffset dx="28" dy="40"/>
<feGaussianBlur stdDeviation="17"/>
<feColorMatrix type="matrix" values="0 0 0 0 0 0 0 0 0 0 0 0 0 0 0 0 0 0 0.44 0"/>
<feBlend mode="normal" in2="effect3_dropShadow_2_954" result="effect4_dropShadow_2_954"/>
<feColorMatrix in="SourceAlpha" type="matrix" values="0 0 0 0 0 0 0 0 0 0 0 0 0 0 0 0 0 0 127 0" result="hardAlpha"/>
<feMorphology radius="3" operator="erode" in="SourceAlpha" result="effect5_dropShadow_2_954"/>
<feOffset dy="27"/>
<feGaussianBlur stdDeviation="7"/>
<feColorMatrix type="matrix" values="0 0 0 0 0 0 0 0 0 0 0 0 0 0 0 0 0 0 0.3 0"/>
<feBlend mode="normal" in2="effect4_dropShadow_2_954" result="effect5_dropShadow_2_954"/>
<feBlend mode="normal" in="SourceGraphic" in2="effect5_dropShadow_2_954" result="shape"/>
</filter>
<filter id="filter1_di_2_954" x="17" y="8" width="232" height="264.711" filterUnits="userSpaceOnUse" color-interpolation-filters="sRGB">
<feFlood flood-opacity="0" result="BackgroundImageFix"/>
<feColorMatrix in="SourceAlpha" type="matrix" values="0 0 0 0 0 0 0 0 0 0 0 0 0 0 0 0 0 0 127 0" result="hardAlpha"/>
<feOffset dy="1"/>
<feGaussianBlur stdDeviation="0.5"/>
<feColorMatrix type="matrix" values="0 0 0 0 0 0 0 0 0 0 0 0 0 0 0 0 0 0 0.5 0"/>
<feBlend mode="normal" in2="BackgroundImageFix" result="effect1_dropShadow_2_954"/>
<feBlend mode="normal" in="SourceGraphic" in2="effect1_dropShadow_2_954" result="shape"/>
<feColorMatrix in="SourceAlpha" type="matrix" values="0 0 0 0 0 0 0 0 0 0 0 0 0 0 0 0 0 0 127 0" result="hardAlpha"/>
<feOffset dy="1"/>
<feGaussianBlur stdDeviation="0.5"/>
<feComposite in2="hardAlpha" operator="arithmetic" k2="-1" k3="1"/>
<feColorMatrix type="matrix" values="0 0 0 0 1 0 0 0 0 1 0 0 0 0 1 0 0 0 1 0"/>
<feBlend mode="normal" in2="shape" result="effect2_innerShadow_2_954"/>
</filter>
<filter id="filter2_i_2_954" x="17" y="116.867" width="10.2" height="154.844" filterUnits="userSpaceOnUse" color-interpolation-filters="sRGB">
<feFlood flood-opacity="0" result="BackgroundImageFix"/>
<feBlend mode="normal" in="SourceGraphic" in2="BackgroundImageFix" result="shape"/>
<feColorMatrix in="SourceAlpha" type="matrix" values="0 0 0 0 0 0 0 0 0 0 0 0 0 0 0 0 0 0 127 0" result="hardAlpha"/>
<feOffset dx="-1" dy="1"/>
<feGaussianBlur stdDeviation="1"/>
<feComposite in2="hardAlpha" operator="arithmetic" k2="-1" k3="1"/>
<feColorMatrix type="matrix" values="0 0 0 0 0 0 0 0 0 0 0 0 0 0 0 0 0 0 0.4 0"/>
<feBlend mode="normal" in2="shape" result="effect1_innerShadow_2_954"/>
</filter>
<filter id="filter3_i_2_954" x="238.8" y="116.867" width="10.2" height="154.844" filterUnits="userSpaceOnUse" color-interpolation-filters="sRGB">
<feFlood flood-opacity="0" result="BackgroundImageFix"/>
<feBlend mode="normal" in="SourceGraphic" in2="BackgroundImageFix" result="shape"/>
<feColorMatrix in="SourceAlpha" type="matrix" values="0 0 0 0 0 0 0 0 0 0 0 0 0 0 0 0 0 0 127 0" result="hardAlpha"/>
<feOffset dx="1" dy="1"/>
<feGaussianBlur stdDeviation="1"/>
<feComposite in2="hardAlpha" operator="arithmetic" k2="-1" k3="1"/>
<feColorMatrix type="matrix" values="0 0 0 0 0 0 0 0 0 0 0 0 0 0 0 0 0 0 0.4 0"/>
<feBlend mode="normal" in2="shape" result="effect1_innerShadow_2_954"/>
</filter>
<filter id="filter4_ii_2_954" x="19.0449" y="28.4444" width="29.2106" height="39.3333" filterUnits="userSpaceOnUse" color-interpolation-filters="sRGB">
<feFlood flood-opacity="0" result="BackgroundImageFix"/>
<feBlend mode="normal" in="SourceGraphic" in2="BackgroundImageFix" result="shape"/>
<feColorMatrix in="SourceAlpha" type="matrix" values="0 0 0 0 0 0 0 0 0 0 0 0 0 0 0 0 0 0 127 0" result="hardAlpha"/>
<feOffset dx="-1" dy="1"/>
<feGaussianBlur stdDeviation="0.5"/>
<feComposite in2="hardAlpha" operator="arithmetic" k2="-1" k3="1"/>
<feColorMatrix type="matrix" values="0 0 0 0 0 0 0 0 0 0 0 0 0 0 0 0 0 0 0.54 0"/>
<feBlend mode="normal" in2="shape" result="effect1_innerShadow_2_954"/>
<feColorMatrix in="SourceAlpha" type="matrix" values="0 0 0 0 0 0 0 0 0 0 0 0 0 0 0 0 0 0 127 0" result="hardAlpha"/>
<feOffset dx="1" dy="1"/>
<feGaussianBlur stdDeviation="0.5"/>
<feComposite in2="hardAlpha" operator="arithmetic" k2="-1" k3="1"/>
<feColorMatrix type="matrix" values="0 0 0 0 0 0 0 0 0 0 0 0 0 0 0 0 0 0 0.25 0"/>
<feBlend mode="normal" in2="effect1_innerShadow_2_954" result="effect2_innerShadow_2_954"/>
</filter>
<filter id="filter5_ii_2_954" x="218.767" y="28.4445" width="28.1884" height="39.3333" filterUnits="userSpaceOnUse" color-interpolation-filters="sRGB">
<feFlood flood-opacity="0" result="BackgroundImageFix"/>
<feBlend mode="normal" in="SourceGraphic" in2="BackgroundImageFix" result="shape"/>
<feColorMatrix in="SourceAlpha" type="matrix" values="0 0 0 0 0 0 0 0 0 0 0 0 0 0 0 0 0 0 127 0" result="hardAlpha"/>
<feOffset dx="-1" dy="1"/>
<feGaussianBlur stdDeviation="0.5"/>
<feComposite in2="hardAlpha" operator="arithmetic" k2="-1" k3="1"/>
<feColorMatrix type="matrix" values="0 0 0 0 0 0 0 0 0 0 0 0 0 0 0 0 0 0 0.54 0"/>
<feBlend mode="normal" in2="shape" result="effect1_innerShadow_2_954"/>
<feColorMatrix in="SourceAlpha" type="matrix" values="0 0 0 0 0 0 0 0 0 0 0 0 0 0 0 0 0 0 127 0" result="hardAlpha"/>
<feOffset dx="1" dy="1"/>
<feGaussianBlur stdDeviation="0.5"/>
<feComposite in2="hardAlpha" operator="arithmetic" k2="-1" k3="1"/>
<feColorMatrix type="matrix" values="0 0 0 0 0 0 0 0 0 0 0 0 0 0 0 0 0 0 0.25 0"/>
<feBlend mode="normal" in2="effect1_innerShadow_2_954" result="effect2_innerShadow_2_954"/>
</filter>
<filter id="filter6_ii_2_954" x="45.0879" y="23.8444" width="175.822" height="55.0444" filterUnits="userSpaceOnUse" color-interpolation-filters="sRGB">
<feFlood flood-opacity="0" result="BackgroundImageFix"/>
<feBlend mode="normal" in="SourceGraphic" in2="BackgroundImageFix" result="shape"/>
<feColorMatrix in="SourceAlpha" type="matrix" values="0 0 0 0 0 0 0 0 0 0 0 0 0 0 0 0 0 0 127 0" result="hardAlpha"/>
<feOffset dy="7"/>
<feGaussianBlur stdDeviation="10"/>
<feComposite in2="hardAlpha" operator="arithmetic" k2="-1" k3="1"/>
<feColorMatrix type="matrix" values="0 0 0 0 0 0 0 0 0 0 0 0 0 0 0 0 0 0 0.2 0"/>
<feBlend mode="normal" in2="shape" result="effect1_innerShadow_2_954"/>
<feColorMatrix in="SourceAlpha" type="matrix" values="0 0 0 0 0 0 0 0 0 0 0 0 0 0 0 0 0 0 127 0" result="hardAlpha"/>
<feOffset dy="1"/>
<feGaussianBlur stdDeviation="1"/>
<feComposite in2="hardAlpha" operator="arithmetic" k2="-1" k3="1"/>
<feColorMatrix type="matrix" values="0 0 0 0 0 0 0 0 0 0 0 0 0 0 0 0 0 0 0.15 0"/>
<feBlend mode="normal" in2="effect1_innerShadow_2_954" result="effect2_innerShadow_2_954"/>
</filter>
<filter id="filter7_i_2_954" x="45.0879" y="80.0667" width="175.822" height="161.489" filterUnits="userSpaceOnUse" color-interpolation-filters="sRGB">
<feFlood flood-opacity="0" result="BackgroundImageFix"/>
<feBlend mode="normal" in="SourceGraphic" in2="BackgroundImageFix" result="shape"/>
<feColorMatrix in="SourceAlpha" type="matrix" values="0 0 0 0 0 0 0 0 0 0 0 0 0 0 0 0 0 0 127 0" result="hardAlpha"/>
<feOffset dy="1"/>
<feGaussianBlur stdDeviation="1.5"/>
<feComposite in2="hardAlpha" operator="arithmetic" k2="-1" k3="1"/>
<feColorMatrix type="matrix" values="0 0 0 0 0 0 0 0 0 0 0 0 0 0 0 0 0 0 0.45 0"/>
<feBlend mode="normal" in2="shape" result="effect1_innerShadow_2_954"/>
</filter>
<filter id="filter8_i_2_954" x="118.462" y="243.622" width="28.9092" height="19.7145" filterUnits="userSpaceOnUse" color-interpolation-filters="sRGB">
<feFlood flood-opacity="0" result="BackgroundImageFix"/>
<feBlend mode="normal" in="SourceGraphic" in2="BackgroundImageFix" result="shape"/>
<feColorMatrix in="SourceAlpha" type="matrix" values="0 0 0 0 0 0 0 0 0 0 0 0 0 0 0 0 0 0 127 0" result="hardAlpha"/>
<feOffset dy="1"/>
<feGaussianBlur stdDeviation="1.5"/>
<feComposite in2="hardAlpha" operator="arithmetic" k2="-1" k3="1"/>
<feColorMatrix type="matrix" values="0 0 0 0 0 0 0 0 0 0 0 0 0 0 0 0 0 0 0.45 0"/>
<feBlend mode="normal" in2="shape" result="effect1_innerShadow_2_954"/>
</filter>
<filter id="filter9_di_2_954" x="66.4082" y="41.7209" width="55.8466" height="13.0358" filterUnits="userSpaceOnUse" color-interpolation-filters="sRGB">
<feFlood flood-opacity="0" result="BackgroundImageFix"/>
<feColorMatrix in="SourceAlpha" type="matrix" values="0 0 0 0 0 0 0 0 0 0 0 0 0 0 0 0 0 0 127 0" result="hardAlpha"/>
<feOffset dx="-0.5" dy="0.5"/>
<feGaussianBlur stdDeviation="0.25"/>
<feColorMatrix type="matrix" values="0 0 0 0 0 0 0 0 0 0 0 0 0 0 0 0 0 0 0.32 0"/>
<feBlend mode="normal" in2="BackgroundImageFix" result="effect1_dropShadow_2_954"/>
<feBlend mode="normal" in="SourceGraphic" in2="effect1_dropShadow_2_954" result="shape"/>
<feColorMatrix in="SourceAlpha" type="matrix" values="0 0 0 0 0 0 0 0 0 0 0 0 0 0 0 0 0 0 127 0" result="hardAlpha"/>
<feOffset dx="0.2" dy="0.5"/>
<feGaussianBlur stdDeviation="0.5"/>
<feComposite in2="hardAlpha" operator="arithmetic" k2="-1" k3="1"/>
<feColorMatrix type="matrix" values="0 0 0 0 1 0 0 0 0 1 0 0 0 0 1 0 0 0 1 0"/>
<feBlend mode="normal" in2="shape" result="effect2_innerShadow_2_954"/>
</filter>
<filter id="filter10_di_2_954" x="125.144" y="41.2222" width="73.6504" height="14.0333" filterUnits="userSpaceOnUse" color-interpolation-filters="sRGB">
<feFlood flood-opacity="0" result="BackgroundImageFix"/>
<feColorMatrix in="SourceAlpha" type="matrix" values="0 0 0 0 0 0 0 0 0 0 0 0 0 0 0 0 0 0 127 0" result="hardAlpha"/>
<feOffset dx="-0.5" dy="0.5"/>
<feGaussianBlur stdDeviation="0.25"/>
<feColorMatrix type="matrix" values="0 0 0 0 0 0 0 0 0 0 0 0 0 0 0 0 0 0 0.32 0"/>
<feBlend mode="normal" in2="BackgroundImageFix" result="effect1_dropShadow_2_954"/>
<feBlend mode="normal" in="SourceGraphic" in2="effect1_dropShadow_2_954" result="shape"/>
<feColorMatrix in="SourceAlpha" type="matrix" values="0 0 0 0 0 0 0 0 0 0 0 0 0 0 0 0 0 0 127 0" result="hardAlpha"/>
<feOffset dx="0.2" dy="0.5"/>
<feGaussianBlur stdDeviation="0.5"/>
<feComposite in2="hardAlpha" operator="arithmetic" k2="-1" k3="1"/>
<feColorMatrix type="matrix" values="0 0 0 0 1 0 0 0 0 1 0 0 0 0 1 0 0 0 1 0"/>
<feBlend mode="normal" in2="shape" result="effect2_innerShadow_2_954"/>
</filter>
<filter id="filter11_di_2_954" x="17" y="8" width="232" height="264.711" filterUnits="userSpaceOnUse" color-interpolation-filters="sRGB">
<feFlood flood-opacity="0" result="BackgroundImageFix"/>
<feColorMatrix in="SourceAlpha" type="matrix" values="0 0 0 0 0 0 0 0 0 0 0 0 0 0 0 0 0 0 127 0" result="hardAlpha"/>
<feOffset dy="1"/>
<feGaussianBlur stdDeviation="0.5"/>
<feColorMatrix type="matrix" values="0 0 0 0 0 0 0 0 0 0 0 0 0 0 0 0 0 0 0.5 0"/>
<feBlend mode="normal" in2="BackgroundImageFix" result="effect1_dropShadow_2_954"/>
<feBlend mode="normal" in="SourceGraphic" in2="effect1_dropShadow_2_954" result="shape"/>
<feColorMatrix in="SourceAlpha" type="matrix" values="0 0 0 0 0 0 0 0 0 0 0 0 0 0 0 0 0 0 127 0" result="hardAlpha"/>
<feOffset dy="1"/>
<feGaussianBlur stdDeviation="0.5"/>
<feComposite in2="hardAlpha" operator="arithmetic" k2="-1" k3="1"/>
<feColorMatrix type="matrix" values="0 0 0 0 1 0 0 0 0 1 0 0 0 0 1 0 0 0 1 0"/>
<feBlend mode="normal" in2="shape" result="effect2_innerShadow_2_954"/>
</filter>
<filter id="filter12_i_2_954" x="17" y="116.867" width="10.2" height="154.844" filterUnits="userSpaceOnUse" color-interpolation-filters="sRGB">
<feFlood flood-opacity="0" result="BackgroundImageFix"/>
<feBlend mode="normal" in="SourceGraphic" in2="BackgroundImageFix" result="shape"/>
<feColorMatrix in="SourceAlpha" type="matrix" values="0 0 0 0 0 0 0 0 0 0 0 0 0 0 0 0 0 0 127 0" result="hardAlpha"/>
<feOffset dx="-1" dy="1"/>
<feGaussianBlur stdDeviation="1"/>
<feComposite in2="hardAlpha" operator="arithmetic" k2="-1" k3="1"/>
<feColorMatrix type="matrix" values="0 0 0 0 0 0 0 0 0 0 0 0 0 0 0 0 0 0 0.4 0"/>
<feBlend mode="normal" in2="shape" result="effect1_innerShadow_2_954"/>
</filter>
<filter id="filter13_i_2_954" x="238.8" y="116.867" width="10.2" height="154.844" filterUnits="userSpaceOnUse" color-interpolation-filters="sRGB">
<feFlood flood-opacity="0" result="BackgroundImageFix"/>
<feBlend mode="normal" in="SourceGraphic" in2="BackgroundImageFix" result="shape"/>
<feColorMatrix in="SourceAlpha" type="matrix" values="0 0 0 0 0 0 0 0 0 0 0 0 0 0 0 0 0 0 127 0" result="hardAlpha"/>
<feOffset dx="1" dy="1"/>
<feGaussianBlur stdDeviation="1"/>
<feComposite in2="hardAlpha" operator="arithmetic" k2="-1" k3="1"/>
<feColorMatrix type="matrix" values="0 0 0 0 0 0 0 0 0 0 0 0 0 0 0 0 0 0 0.4 0"/>
<feBlend mode="normal" in2="shape" result="effect1_innerShadow_2_954"/>
</filter>
<filter id="filter14_ii_2_954" x="19.0449" y="28.4444" width="29.2106" height="39.3333" filterUnits="userSpaceOnUse" color-interpolation-filters="sRGB">
<feFlood flood-opacity="0" result="BackgroundImageFix"/>
<feBlend mode="normal" in="SourceGraphic" in2="BackgroundImageFix" result="shape"/>
<feColorMatrix in="SourceAlpha" type="matrix" values="0 0 0 0 0 0 0 0 0 0 0 0 0 0 0 0 0 0 127 0" result="hardAlpha"/>
<feOffset dx="-1" dy="1"/>
<feGaussianBlur stdDeviation="0.5"/>
<feComposite in2="hardAlpha" operator="arithmetic" k2="-1" k3="1"/>
<feColorMatrix type="matrix" values="0 0 0 0 0 0 0 0 0 0 0 0 0 0 0 0 0 0 0.54 0"/>
<feBlend mode="normal" in2="shape" result="effect1_innerShadow_2_954"/>
<feColorMatrix in="SourceAlpha" type="matrix" values="0 0 0 0 0 0 0 0 0 0 0 0 0 0 0 0 0 0 127 0" result="hardAlpha"/>
<feOffset dx="1" dy="1"/>
<feGaussianBlur stdDeviation="0.5"/>
<feComposite in2="hardAlpha" operator="arithmetic" k2="-1" k3="1"/>
<feColorMatrix type="matrix" values="0 0 0 0 0 0 0 0 0 0 0 0 0 0 0 0 0 0 0.25 0"/>
<feBlend mode="normal" in2="effect1_innerShadow_2_954" result="effect2_innerShadow_2_954"/>
</filter>
<filter id="filter15_ii_2_954" x="218.767" y="28.4445" width="28.1884" height="39.3333" filterUnits="userSpaceOnUse" color-interpolation-filters="sRGB">
<feFlood flood-opacity="0" result="BackgroundImageFix"/>
<feBlend mode="normal" in="SourceGraphic" in2="BackgroundImageFix" result="shape"/>
<feColorMatrix in="SourceAlpha" type="matrix" values="0 0 0 0 0 0 0 0 0 0 0 0 0 0 0 0 0 0 127 0" result="hardAlpha"/>
<feOffset dx="-1" dy="1"/>
<feGaussianBlur stdDeviation="0.5"/>
<feComposite in2="hardAlpha" operator="arithmetic" k2="-1" k3="1"/>
<feColorMatrix type="matrix" values="0 0 0 0 0 0 0 0 0 0 0 0 0 0 0 0 0 0 0.54 0"/>
<feBlend mode="normal" in2="shape" result="effect1_innerShadow_2_954"/>
<feColorMatrix in="SourceAlpha" type="matrix" values="0 0 0 0 0 0 0 0 0 0 0 0 0 0 0 0 0 0 127 0" result="hardAlpha"/>
<feOffset dx="1" dy="1"/>
<feGaussianBlur stdDeviation="0.5"/>
<feComposite in2="hardAlpha" operator="arithmetic" k2="-1" k3="1"/>
<feColorMatrix type="matrix" values="0 0 0 0 0 0 0 0 0 0 0 0 0 0 0 0 0 0 0.25 0"/>
<feBlend mode="normal" in2="effect1_innerShadow_2_954" result="effect2_innerShadow_2_954"/>
</filter>
<filter id="filter16_ii_2_954" x="45.0879" y="23.8444" width="175.822" height="55.0444" filterUnits="userSpaceOnUse" color-interpolation-filters="sRGB">
<feFlood flood-opacity="0" result="BackgroundImageFix"/>
<feBlend mode="normal" in="SourceGraphic" in2="BackgroundImageFix" result="shape"/>
<feColorMatrix in="SourceAlpha" type="matrix" values="0 0 0 0 0 0 0 0 0 0 0 0 0 0 0 0 0 0 127 0" result="hardAlpha"/>
<feOffset dy="7"/>
<feGaussianBlur stdDeviation="10"/>
<feComposite in2="hardAlpha" operator="arithmetic" k2="-1" k3="1"/>
<feColorMatrix type="matrix" values="0 0 0 0 0 0 0 0 0 0 0 0 0 0 0 0 0 0 0.2 0"/>
<feBlend mode="normal" in2="shape" result="effect1_innerShadow_2_954"/>
<feColorMatrix in="SourceAlpha" type="matrix" values="0 0 0 0 0 0 0 0 0 0 0 0 0 0 0 0 0 0 127 0" result="hardAlpha"/>
<feOffset dy="1"/>
<feGaussianBlur stdDeviation="1"/>
<feComposite in2="hardAlpha" operator="arithmetic" k2="-1" k3="1"/>
<feColorMatrix type="matrix" values="0 0 0 0 0 0 0 0 0 0 0 0 0 0 0 0 0 0 0.15 0"/>
<feBlend mode="normal" in2="effect1_innerShadow_2_954" result="effect2_innerShadow_2_954"/>
</filter>
<filter id="filter17_i_2_954" x="45.6008" y="80.45" width="175.822" height="161.489" filterUnits="userSpaceOnUse" color-interpolation-filters="sRGB">
<feFlood flood-opacity="0" result="BackgroundImageFix"/>
<feBlend mode="normal" in="SourceGraphic" in2="BackgroundImageFix" result="shape"/>
<feColorMatrix in="SourceAlpha" type="matrix" values="0 0 0 0 0 0 0 0 0 0 0 0 0 0 0 0 0 0 127 0" result="hardAlpha"/>
<feOffset dy="1"/>
<feGaussianBlur stdDeviation="1.5"/>
<feComposite in2="hardAlpha" operator="arithmetic" k2="-1" k3="1"/>
<feColorMatrix type="matrix" values="0 0 0 0 0 0 0 0 0 0 0 0 0 0 0 0 0 0 0.45 0"/>
<feBlend mode="normal" in2="shape" result="effect1_innerShadow_2_954"/>
</filter>
<pattern id="pattern0" patternContentUnits="objectBoundingBox" width="1" height="1">
<use xlink:href="#image0_2_954" transform="translate(-0.322004) scale(0.00144131 0.00158482)"/>
</pattern>
<filter id="filter18_i_2_954" x="118.462" y="243.622" width="28.9092" height="19.7145" filterUnits="userSpaceOnUse" color-interpolation-filters="sRGB">
<feFlood flood-opacity="0" result="BackgroundImageFix"/>
<feBlend mode="normal" in="SourceGraphic" in2="BackgroundImageFix" result="shape"/>
<feColorMatrix in="SourceAlpha" type="matrix" values="0 0 0 0 0 0 0 0 0 0 0 0 0 0 0 0 0 0 127 0" result="hardAlpha"/>
<feOffset dy="1"/>
<feGaussianBlur stdDeviation="1.5"/>
<feComposite in2="hardAlpha" operator="arithmetic" k2="-1" k3="1"/>
<feColorMatrix type="matrix" values="0 0 0 0 0 0 0 0 0 0 0 0 0 0 0 0 0 0 0.45 0"/>
<feBlend mode="normal" in2="shape" result="effect1_innerShadow_2_954"/>
</filter>
</defs>
</svg>
